<?xml version="1.0" encoding="iso-8859-1"?>
<!-- Uploaded to: SVG Repo, www.svgrepo.com, Generator: SVG Repo Mixer Tools -->
<!DOCTYPE svg PUBLIC "-//W3C//DTD SVG 1.1//EN" "http://www.w3.org/Graphics/SVG/1.1/DTD/svg11.dtd">
<svg fill="#000000" height="800px" width="800px" version="1.1" id="Capa_1" xmlns="http://www.w3.org/2000/svg" xmlns:xlink="http://www.w3.org/1999/xlink" 
	 viewBox="0 0 287.805 287.805" xml:space="preserve">
<path d="M243.815,58.799l-38.85-7.403c-13.368-2.547-23.038-14.235-23.038-27.843V7.497c0-4.14-3.356-7.497-7.497-7.497h-61.056
	c-4.14,0-7.497,3.356-7.497,7.497v16.056c0,13.608-9.671,25.296-23.038,27.843l-38.85,7.403
	c-20.484,3.903-34.77,22.568-33.188,43.361l13.597,178.717c0.297,3.908,3.555,6.928,7.475,6.928h32.353l6.447-41.906L45.405,135.361
	c-1.076-4.706,1.867-9.394,6.572-10.469c4.714-1.082,9.394,1.868,10.469,6.572l26.012,113.793l-6.545,42.547h123.98l-6.545-42.547
	l26.011-113.792c1.076-4.706,5.766-7.653,10.468-6.573c4.706,1.075,7.65,5.763,6.573,10.468l-25.267,110.538l6.446,41.906h32.353
	c3.92,0,7.178-3.02,7.475-6.928l13.597-178.717C278.585,81.367,264.299,62.702,243.815,58.799z M150.895,217.907
	c0,3.862-3.13,6.992-6.992,6.992s-6.992-3.13-6.992-6.992V87.962c0-3.862,3.13-6.992,6.992-6.992s6.992,3.13,6.992,6.992V217.907z"
	/>
</svg>